<svg id="Calque_1" data-name="Calque 1" xmlns="http://www.w3.org/2000/svg" viewBox="0 0 21.46 37.96"><defs><style>.cls-1{fill:#684d9a;}</style></defs><path id="logo_flecheR" class="cls-1" d="M181,141.09a4,4,0,0,1-1.57,2.52c-3.91,3.92-7.75,7.92-11.78,11.71-1.74,1.63-2,2.61-.11,4.39,4.07,3.75,7.88,7.78,11.79,11.71,1.21,1.21,2.56,2.53,1,4.23s-3.17.64-4.51-.71C170.88,170,166,165,161,160.15c-1.82-1.77-1.9-3.28-.1-5.06q7.68-7.59,15.28-15.28c.92-.92,1.86-1.54,3.23-1A2.77,2.77,0,0,1,181,141.09Z" transform="translate(-159.58 -138.61)"/></svg>