<svg id="Calque_1" data-name="Calque 1" xmlns="http://www.w3.org/2000/svg" viewBox="0 0 52.01 34.25"><defs><style>.cls-1{fill:#684d9a;}</style></defs><g id="logo_video"><path class="cls-1" d="M464.43,301c3.1,0,6.21-.07,9.31,0,5.52.14,8.63,3.29,8.66,8.74s0,11.09,0,16.64c0,5.33-3,8.58-8.35,8.71-6.42.15-12.86.14-19.28,0-5.28-.11-8.3-3.4-8.34-8.72q0-8.33,0-16.64c0-5.33,3-8.5,8.35-8.72C458,300.89,461.21,301,464.43,301Z" transform="translate(-446.41 -300.96)"/><path class="cls-1" d="M498.4,318.33c0,2.44,0,4.87,0,7.3-.05,3.44-1.09,4-4.29,2.54l-.31-.14c-7.6-3.68-8.91-6.33-7.38-14.71a3.29,3.29,0,0,1,1.95-2.48c2.06-1,4.11-2.14,6.21-3.11,2.63-1.2,3.73-.53,3.81,2.31S498.4,315.57,498.4,318.33Z" transform="translate(-446.41 -300.96)"/></g></svg>