<svg id="Calque_1" data-name="Calque 1" xmlns="http://www.w3.org/2000/svg" viewBox="0 0 43.9 43.86"><defs><style>.cls-1{fill:#466bb1;}</style></defs><path id="logo_flecheE" class="cls-1" d="M521.34,172.63l-.63,2q-5.75,17.31-11.5,34.63c-.59,1.76-1,3.81-3.5,3.81s-2.86-2.08-3.47-3.83c-1.36-3.86-2.71-7.72-4-11.61a8,8,0,0,0-5.38-5.41c-4.19-1.42-8.35-2.93-12.56-4.3-1.62-.53-2.87-1.27-2.9-3.12s1.22-2.63,2.84-3.17c12.17-4,24.32-8.12,36.5-12.14C519.55,168.54,521.45,169.85,521.34,172.63Z" transform="translate(-477.44 -169.17)"/></svg>