<svg id="Calque_1" data-name="Calque 1" xmlns="http://www.w3.org/2000/svg" viewBox="0 0 41.99 42.05"><defs><style>.cls-1{fill:#684d9a;}</style></defs><path id="logo_phone" class="cls-1" d="M499.35,277.71a25.32,25.32,0,0,1-12.68-4.47c-7.81-5.17-14.12-11.72-18-20.38a16.83,16.83,0,0,1-1.45-10.67,8.3,8.3,0,0,1,5.81-6.28c2.91-1,4.72,1.15,6.4,3.13,4.11,4.83,4.2,5.69.62,10.9a3.42,3.42,0,0,0-.2,3.95,24.9,24.9,0,0,0,9.65,10.23c2.19,1.34,3.89,1.33,6-.2,4.41-3.22,12.75.63,13.35,6C509.29,273.74,504.33,277.78,499.35,277.71Z" transform="translate(-466.91 -235.67)"/></svg>