<svg id="Calque_1" data-name="Calque 1" xmlns="http://www.w3.org/2000/svg" viewBox="0 0 43.54 46.18"><defs><style>.cls-1{fill:#466bb1;}</style></defs><g id="logo_pouce"><path class="cls-1" d="M478.83,326.31a17.72,17.72,0,0,1,5.11-15.81c3-3.07,2.9-7,2.3-11-.23-1.49-.9-3.33.78-4.26,1.92-1.06,3.73,0,5.13,1.31,2.68,2.43,3.19,5.71,3.08,9.14a21,21,0,0,1-.25,3.64c-.41,1.88.4,2.28,2.08,2.34a24.13,24.13,0,0,1,8.77,1.62c2.22.93,3.92,2.28,2.6,5.09-.05.1-.18.24-.15.29,2.17,3.23.32,6.11-.23,9.37-1,5.87-3.35,9.73-9.27,10.54a40,40,0,0,1-14.55-.63c-4.38-1-5.36-2.36-5.4-7C478.82,329.42,478.83,327.87,478.83,326.31Z" transform="translate(-465.76 -294.84)"/><path class="cls-1" d="M475,329.17c0,2.78,0,5.55,0,8.33,0,1.65-.19,3.34-2.3,3.34s-4.76,1.1-5.6-2a36.84,36.84,0,0,1,.1-20c.9-3.06,3.69-1.78,5.71-1.78s2.07,1.67,2.08,3.18Q475,324.68,475,329.17Z" transform="translate(-465.76 -294.84)"/></g></svg>