<svg id="Calque_1" data-name="Calque 1" xmlns="http://www.w3.org/2000/svg" viewBox="0 0 34.12 44.09"><defs><style>.cls-1{fill:#466bb1;}</style></defs><g id="logo_micro"><path class="cls-1" d="M497.35,339.49c-2.66,0-5.33,0-8,0-1.75,0-2.8-.69-2.88-2.45s1-2.58,2.7-2.64c.89,0,1.79.08,2.66,0,1.08-.15,2.64.65,3-1.16s-1-2.07-2.36-2.48a16.74,16.74,0,0,1-7.72-5,17.26,17.26,0,0,1-4.33-10.91c-.09-1.66.18-3.19,2.29-3.36,2.27-.18,2.67,1.2,2.81,3.14.51,7.08,5.3,11.73,11.94,11.75s11.47-4.67,11.95-11.72c.13-1.95.54-3.33,2.79-3.17s2.39,2,2.31,3.67a17.11,17.11,0,0,1-12,15.56c-1.3.43-2.76.61-2.38,2.48s1.92,1,3,1.18c2.08.33,5.38-1.08,5.29,2.64s-3.39,2.2-5.44,2.41A56,56,0,0,1,497.35,339.49Z" transform="translate(-480.45 -295.49)"/><path class="cls-1" d="M505.49,309.05c0,2,.11,4,0,6a8,8,0,0,1-15.92-.13c-.15-4-.17-8,0-11.95a8,8,0,0,1,15.91.12C505.59,305.06,505.49,307.06,505.49,309.05Z" transform="translate(-480.45 -295.49)"/></g></svg>