<svg id="Calque_1" data-name="Calque 1" xmlns="http://www.w3.org/2000/svg" viewBox="0 0 44.03 40.04"><defs><style>.cls-1{fill:#466bb1;}</style></defs><g id="logo_photo"><path class="cls-1" d="M583.41,456c4.54,0,9.09,0,13.63,0,5.09.07,8.31,3.23,8.36,8.32q.09,11.64,0,23.29c0,5.1-3.23,8.33-8.31,8.36q-13.64.09-27.28,0c-5.09,0-8.31-3.22-8.35-8.31q-.11-11.64,0-23.3c0-5.09,3.23-8.23,8.31-8.37h13.64Zm.21,5.09c-4.54,0-9.08,0-13.62,0-2.31,0-3.48,1.09-3.48,3.43,0,5.65,0,11.3,0,17,0,1.85.6,2.13,2.14,1.21,2.84-1.71,5.74-3.32,8.62-5a11.88,11.88,0,0,1,12.6.11c2.69,1.54,5.4,3,8,4.68,1.75,1.1,2.49,1,2.46-1.31q-.12-8.13,0-16.28c0-2.9-1.38-3.91-4.11-3.85C592,461.15,587.83,461.08,583.62,461.09Z" transform="translate(-561.41 -455.98)"/><path class="cls-1" d="M578.47,469.08c-.35,2.38-1.65,4-4.11,3.9a4,4,0,0,1,.15-8C576.9,465.1,578.28,466.61,578.47,469.08Z" transform="translate(-561.41 -455.98)"/></g></svg>