<svg id="Calque_1" data-name="Calque 1" xmlns="http://www.w3.org/2000/svg" viewBox="0 0 44.06 43.99"><defs><style>.cls-1{fill:#466bb1;}</style></defs><path id="logo_smile" class="cls-1" d="M492.68,289.85c-12.66.23-21.43-11.59-21.07-23,.42-13.15,11.22-21.2,22.82-21,12.09.2,21.61,10.58,21.22,23C515.29,280.79,505,290.17,492.68,289.85Zm1-8.58a14.86,14.86,0,0,0,9.68-3.25c1.13-.83,1.7-1.95.79-3.12a2,2,0,0,0-3-.25c-5,3.64-10,3.58-15.09.06-1-.67-2.12-1-2.95.15s-.35,2.32.76,3.16A15.09,15.09,0,0,0,493.71,281.27Zm-4.6-17.51c-.09-1.92-.5-3.84-3-3.84s-3,2-3,3.93.62,3.92,3,3.93S489.08,265.86,489.11,263.76Zm9.13.12c.08,1.92.45,3.86,2.92,3.9s3-1.92,3-3.87-.57-3.93-3-4S498.28,261.78,498.24,263.88Z" transform="translate(-471.6 -245.87)"/></svg>